<svg width="1130" height="83" viewBox="0 0 1130 83" fill="none" xmlns="http://www.w3.org/2000/svg">
<path opacity="0.6" d="M0.955469 143V2.99999H57.1555C71.6888 2.99999 82.7555 6.39999 90.3555 13.2C98.0888 19.8667 101.955 28.4667 101.955 39C101.955 47.8 99.5555 54.8667 94.7555 60.2C90.0888 65.4 84.3555 68.9333 77.5555 70.8C85.5555 72.4 92.1555 76.4 97.3555 82.8C102.555 89.0667 105.155 96.4 105.155 104.8C105.155 115.867 101.155 125 93.1555 132.2C85.1555 139.4 73.8221 143 59.1555 143H0.955469ZM26.5555 61.8H53.3555C60.5555 61.8 66.0888 60.1333 69.9555 56.8C73.8221 53.4667 75.7555 48.7333 75.7555 42.6C75.7555 36.7333 73.8221 32.1333 69.9555 28.8C66.2221 25.3333 60.5555 23.6 52.9555 23.6H26.5555V61.8ZM26.5555 122.2H55.1555C62.7555 122.2 68.6221 120.467 72.7555 117C77.0221 113.4 79.1555 108.4 79.1555 102C79.1555 95.4667 76.9555 90.3333 72.5555 86.6C68.1555 82.8667 62.2221 81 54.7555 81H26.5555V122.2ZM127.127 143V2.99999H152.727V123H214.727V143H127.127ZM290.188 145.4C276.188 145.4 263.922 142.333 253.388 136.2C242.988 130.067 234.788 121.6 228.788 110.8C222.922 99.8667 219.988 87.2667 219.988 73C219.988 58.7333 222.922 46.2 228.788 35.4C234.788 24.4667 242.988 15.9333 253.388 9.8C263.922 3.66666 276.188 0.599998 290.188 0.599998C304.055 0.599998 316.255 3.66666 326.788 9.8C337.322 15.9333 345.522 24.4667 351.388 35.4C357.255 46.2 360.188 58.7333 360.188 73C360.188 87.2667 357.255 99.8667 351.388 110.8C345.522 121.6 337.322 130.067 326.788 136.2C316.255 142.333 304.055 145.4 290.188 145.4ZM290.188 122.4C303.522 122.4 314.122 118 321.988 109.2C329.988 100.4 333.988 88.3333 333.988 73C333.988 57.6667 329.988 45.6 321.988 36.8C314.122 28 303.522 23.6 290.188 23.6C276.855 23.6 266.188 28 258.188 36.8C250.188 45.6 246.188 57.6667 246.188 73C246.188 88.3333 250.188 100.4 258.188 109.2C266.188 118 276.855 122.4 290.188 122.4ZM446.191 145.4C432.058 145.4 419.925 142.4 409.791 136.4C399.658 130.267 391.858 121.8 386.391 111C380.925 100.067 378.191 87.4667 378.191 73.2C378.191 58.9333 380.925 46.3333 386.391 35.4C391.858 24.4667 399.658 15.9333 409.791 9.8C419.925 3.66666 432.058 0.599998 446.191 0.599998C462.991 0.599998 476.725 4.8 487.391 13.2C498.191 21.4667 504.925 33.1333 507.591 48.2H479.391C477.658 40.6 473.925 34.6667 468.191 30.4C462.591 26 455.125 23.8 445.791 23.8C432.858 23.8 422.725 28.2 415.391 37C408.058 45.8 404.391 57.8667 404.391 73.2C404.391 88.5333 408.058 100.6 415.391 109.4C422.725 118.067 432.858 122.4 445.791 122.4C455.125 122.4 462.591 120.4 468.191 116.4C473.925 112.267 477.658 106.6 479.391 99.4H507.591C504.925 113.8 498.191 125.067 487.391 133.2C476.725 141.333 462.991 145.4 446.191 145.4ZM530.252 143V2.99999H555.852V59.6L607.652 2.99999H639.252L587.652 58.6L640.652 143H609.252L569.252 78.2L555.852 92.8V143H530.252ZM705.982 145.4C695.715 145.4 686.649 143.667 678.782 140.2C670.915 136.6 664.715 131.533 660.182 125C655.649 118.333 653.315 110.267 653.182 100.8H680.182C680.449 107.333 682.782 112.867 687.182 117.4C691.715 121.8 697.915 124 705.782 124C712.582 124 717.982 122.4 721.982 119.2C725.982 115.867 727.982 111.467 727.982 106C727.982 100.267 726.182 95.8 722.582 92.6C719.115 89.4 714.449 86.8 708.582 84.8C702.715 82.8 696.449 80.6667 689.782 78.4C678.982 74.6667 670.715 69.8667 664.982 64C659.382 58.1333 656.582 50.3333 656.582 40.6C656.449 32.3333 658.382 25.2667 662.382 19.4C666.515 13.4 672.115 8.79999 679.182 5.59999C686.249 2.26666 694.382 0.599998 703.582 0.599998C712.915 0.599998 721.115 2.26666 728.182 5.59999C735.382 8.93332 740.982 13.6 744.982 19.6C749.115 25.6 751.315 32.7333 751.582 41H724.182C724.049 36.0667 722.115 31.7333 718.382 28C714.782 24.1333 709.715 22.2 703.182 22.2C697.582 22.0667 692.849 23.4667 688.982 26.4C685.249 29.2 683.382 33.3333 683.382 38.8C683.382 43.4667 684.849 47.2 687.782 50C690.715 52.6667 694.715 54.9333 699.782 56.8C704.849 58.6667 710.649 60.6667 717.182 62.8C724.115 65.2 730.449 68 736.182 71.2C741.915 74.4 746.515 78.6667 749.982 84C753.449 89.2 755.182 95.9333 755.182 104.2C755.182 111.533 753.315 118.333 749.582 124.6C745.849 130.867 740.315 135.933 732.982 139.8C725.649 143.533 716.649 145.4 705.982 145.4ZM808.36 143V23.6H767.56V2.99999H874.96V23.6H833.96V143H808.36ZM870.08 143L921.28 2.99999H950.08L1001.28 143H974.08L962.88 110.6H908.28L896.88 143H870.08ZM915.28 90.6H955.88L935.48 32.4L915.28 90.6ZM1019.31 143V2.99999H1044.91V59.6L1096.71 2.99999H1128.31L1076.71 58.6L1129.71 143H1098.31L1058.31 78.2L1044.91 92.8V143H1019.31Z" fill="#EAEAF7"/>
</svg>
