<svg width="280" height="204" viewBox="0 0 280 204" fill="none" xmlns="http://www.w3.org/2000/svg">
<path d="M128.433 0.293607C240.772 1.15015 296.323 233.889 296.323 233.889L-43 231.302C-43 231.302 16.0937 -0.562941 128.433 0.293607Z" fill="#171734" fill-opacity="0.3"/>
<path d="M128.425 1.29358C156.139 1.50489 180.434 16.0143 201.336 37.8459C222.238 59.6775 239.66 88.7445 253.603 117.845C267.542 146.936 277.98 176.009 284.935 197.814C288.412 208.715 291.017 217.797 292.752 224.151C293.619 227.328 294.27 229.823 294.702 231.522C294.838 232.054 294.952 232.507 295.045 232.88L-41.7068 230.312C-41.6082 229.941 -41.4872 229.489 -41.3438 228.96C-40.8849 227.267 -40.1968 224.782 -39.2809 221.619C-37.4489 215.292 -34.7059 206.252 -31.0633 195.405C-23.7771 173.708 -12.8965 144.798 1.48436 115.922C15.8697 87.0382 33.7324 58.2402 54.965 36.7298C76.1975 15.2195 100.711 1.08227 128.425 1.29358Z" stroke="url(#paint0_linear_142_1166)" stroke-opacity="0.2" stroke-width="2"/>
<path d="M131.615 47.0534C219.087 47.7203 262.342 228.942 262.342 228.942L-1.87015 226.927C-1.87015 226.927 44.1429 46.3865 131.615 47.0534Z" fill="#14142D" fill-opacity="0.3"/>
<path d="M131.607 48.0534C153.105 48.2173 171.969 59.4713 188.221 76.4464C204.473 93.4215 218.027 116.031 228.879 138.68C239.726 161.319 247.851 183.947 253.264 200.919C255.97 209.404 257.997 216.472 259.348 221.417C260.023 223.889 260.529 225.831 260.866 227.153C260.939 227.443 261.005 227.703 261.063 227.932L-0.575703 225.937C-0.514661 225.709 -0.445046 225.45 -0.36687 225.161C-0.00990294 223.844 0.525549 221.911 1.23836 219.449C2.66404 214.525 4.79896 207.489 7.63411 199.046C13.3055 182.158 21.7739 159.658 32.9655 137.186C44.1616 114.705 58.058 92.3052 74.5673 75.5798C91.0766 58.8545 110.11 47.8895 131.607 48.0534Z" stroke="url(#paint1_linear_142_1166)" stroke-opacity="0.2" stroke-width="2"/>
<g filter="url(#filter0_d_142_1166)">
<path d="M137.414 102.076C224.886 102.743 268.141 283.964 268.141 283.964L3.92917 281.95C3.92917 281.95 49.9422 101.409 137.414 102.076Z" fill="#0F0F23" fill-opacity="0.3" shape-rendering="crispEdges"/>
<path d="M137.407 103.076C158.904 103.24 177.768 114.494 194.02 131.469C210.273 148.444 223.826 171.054 234.678 193.702C245.526 216.342 253.65 238.969 259.063 255.942C261.769 264.426 263.797 271.494 265.147 276.439C265.822 278.912 266.328 280.853 266.665 282.176C266.739 282.465 266.804 282.725 266.862 282.954L5.22361 280.959C5.28466 280.731 5.35427 280.472 5.43245 280.184C5.78941 278.867 6.32486 276.933 7.03768 274.471C8.46336 269.548 10.5983 262.511 13.4334 254.069C19.1048 237.181 27.5732 214.68 38.7648 192.208C49.9609 169.728 63.8573 147.328 80.3667 130.602C96.8759 113.877 115.909 102.912 137.407 103.076Z" stroke="url(#paint2_linear_142_1166)" stroke-opacity="0.2" stroke-width="2" shape-rendering="crispEdges"/>
</g>
<defs>
<filter id="filter0_d_142_1166" x="-20.0708" y="82.0741" width="312.212" height="229.89" filterUnits="userSpaceOnUse" color-interpolation-filters="sRGB">
<feFlood flood-opacity="0" result="BackgroundImageFix"/>
<feColorMatrix in="SourceAlpha" type="matrix" values="0 0 0 0 0 0 0 0 0 0 0 0 0 0 0 0 0 0 127 0" result="hardAlpha"/>
<feOffset dy="4"/>
<feGaussianBlur stdDeviation="12"/>
<feComposite in2="hardAlpha" operator="out"/>
<feColorMatrix type="matrix" values="0 0 0 0 0 0 0 0 0 0 0 0 0 0 0 0 0 0 0.25 0"/>
<feBlend mode="normal" in2="BackgroundImageFix" result="effect1_dropShadow_142_1166"/>
<feBlend mode="normal" in="SourceGraphic" in2="effect1_dropShadow_142_1166" result="shape"/>
</filter>
<linearGradient id="paint0_linear_142_1166" x1="323.16" y1="156.655" x2="-68.6562" y2="153.668" gradientUnits="userSpaceOnUse">
<stop stop-color="#F87BFF"/>
<stop offset="1" stop-color="#2A2A59"/>
</linearGradient>
<linearGradient id="paint1_linear_142_1166" x1="283.238" y1="168.804" x2="-21.8473" y2="166.478" gradientUnits="userSpaceOnUse">
<stop stop-color="#F87BFF"/>
<stop offset="1" stop-color="#2A2A59"/>
</linearGradient>
<linearGradient id="paint2_linear_142_1166" x1="289.038" y1="223.826" x2="-16.048" y2="221.5" gradientUnits="userSpaceOnUse">
<stop stop-color="#F87BFF"/>
<stop offset="1" stop-color="#2A2A59"/>
</linearGradient>
</defs>
</svg>
