<svg width="100" height="100" viewBox="0 0 100 100" fill="none" xmlns="http://www.w3.org/2000/svg">
<rect x="0.206909" width="99.7933" height="99.7933" rx="16" transform="rotate(0.118781 0.206909 0)" fill="url(#paint0_linear_142_1410)"/>
<rect x="0.47816" y="0.272378" width="99.2497" height="99.2497" rx="15.7282" transform="rotate(0.118781 0.47816 0.272378)" stroke="url(#paint1_linear_142_1410)" stroke-opacity="0.4" stroke-width="0.54363"/>
<rect x="0.47816" y="0.272378" width="99.2497" height="99.2497" rx="15.7282" transform="rotate(0.118781 0.47816 0.272378)" stroke="url(#paint2_linear_142_1410)" stroke-opacity="0.2" stroke-width="0.54363"/>
<g filter="url(#filter0_f_142_1410)">
<path opacity="0.4" d="M60.4361 66.9787L60.5064 66.4167H59.94H40.06H39.4936L39.5639 66.9787C39.5827 67.1291 39.5833 67.284 39.5833 67.5C39.5833 67.9822 39.5396 68.4408 39.4522 68.8998C39.367 69.3469 39.216 69.8027 39.0392 70.2227L38.747 70.9167H39.5H60.5H61.2901L60.9519 70.2027C60.7637 69.8055 60.6353 69.3814 60.5483 68.9253C60.4602 68.4403 60.4167 67.9809 60.4167 67.5C60.4167 67.284 60.4174 67.1291 60.4361 66.9787ZM29.7774 39.0392L29.0833 38.747V39.5V60.5V61.2901L29.7974 60.9519C30.1946 60.7638 30.6186 60.6353 31.0747 60.5483C31.5597 60.4602 32.0192 60.4167 32.5 60.4167C32.716 60.4167 32.8709 60.4174 33.0213 60.4362L33.5833 60.5064V59.94V40.06V39.4936L33.0213 39.5639C32.8709 39.5827 32.716 39.5834 32.5 39.5834C32.0179 39.5834 31.5592 39.5396 31.1002 39.4522C30.6531 39.367 30.1974 39.2161 29.7774 39.0392ZM66.9787 39.5639L66.4167 39.4936V40.06V59.94V60.5064L66.9787 60.4362C67.1291 60.4174 67.284 60.4167 67.5 60.4167C67.9821 60.4167 68.4408 60.4604 68.8998 60.5479C69.3469 60.633 69.8027 60.784 70.2226 60.9609L70.9167 61.2531V60.5V39.5V38.7099L70.2026 39.0482C69.8054 39.2363 69.3813 39.3648 68.9252 39.4518C68.4402 39.5399 67.9808 39.5834 67.5 39.5834C67.284 39.5834 67.1291 39.5827 66.9787 39.5639ZM60.9608 29.7774L61.253 29.0834H60.5H39.5H38.7099L39.0481 29.7974C39.2363 30.1946 39.3648 30.6187 39.4518 31.0749C39.5398 31.5598 39.5833 32.0192 39.5833 32.5C39.5833 32.7161 39.5827 32.871 39.5639 33.0214L39.4936 33.5834H40.06H59.94H60.5064L60.4361 33.0214C60.4174 32.871 60.4167 32.7161 60.4167 32.5C60.4167 32.0179 60.4604 31.5592 60.5478 31.1003C60.633 30.6531 60.784 30.1974 60.9608 29.7774Z" fill="#8A8AFF" stroke="#303067"/>
<path d="M40.4353 30.8939L40.4353 30.8938L40.4345 30.8897C40.3356 30.3703 40.1855 29.8651 39.9567 29.3794C38.7116 26.4275 35.806 24.4166 32.5 24.4166C28.0472 24.4166 24.4167 28.0472 24.4167 32.5C24.4167 35.7854 26.4312 38.7177 29.3893 39.9608C29.856 40.1573 30.3802 40.333 30.9131 40.4345C31.4341 40.5337 31.9554 40.5833 32.5 40.5833H32.5141C32.7103 40.5833 32.9195 40.5833 33.1331 40.5576C33.7691 40.5078 34.3585 40.3855 34.9448 40.192C35.1945 40.1334 35.4512 40.0289 35.6582 39.9372C35.7922 39.8829 35.9437 39.8071 36.0724 39.7428L36.0836 39.7372L36.0925 39.7327C36.2231 39.6675 36.3803 39.5889 36.5406 39.4837C37.7749 38.7886 38.7887 37.7749 39.4838 36.5406C39.5889 36.3802 39.6675 36.223 39.7328 36.0924L39.7372 36.0836L39.7428 36.0724C39.8071 35.9437 39.8829 35.7922 39.9372 35.6582C40.029 35.4512 40.1334 35.1945 40.1921 34.9448C40.3856 34.3585 40.5078 33.7691 40.5576 33.1331C40.5834 32.9195 40.5833 32.7103 40.5833 32.5141V32.5C40.5833 31.9548 40.5336 31.4348 40.4353 30.8939Z" fill="#8A8AFF" stroke="#303067"/>
<path d="M69.1061 40.4352L69.1061 40.4352L69.1102 40.4345C69.6297 40.3355 70.1348 40.1855 70.6205 39.9566C73.5724 38.7116 75.5833 35.8059 75.5833 32.5C75.5833 28.0472 71.9528 24.4166 67.5 24.4166C64.2144 24.4166 61.282 26.4313 60.039 29.3896C59.8426 29.8562 59.667 30.3803 59.5655 30.9131C59.4662 31.4341 59.4167 31.9554 59.4167 32.5L59.4167 32.5141C59.4166 32.7101 59.4166 32.919 59.4423 33.1324C59.4919 33.7902 59.6143 34.4075 59.8345 35.026C59.8851 35.2225 59.9595 35.4465 60.0613 35.6567C60.1099 35.7911 60.1775 35.9199 60.2265 36.0135C60.2404 36.0399 60.2527 36.0635 60.2628 36.0836L60.7069 35.8615L60.2628 36.0836L60.2672 36.0924C60.3325 36.223 60.4111 36.3802 60.5162 36.5406C61.2113 37.7749 62.2251 38.7886 63.4594 39.4837C63.6197 39.5889 63.7769 39.6674 63.9075 39.7327L63.9164 39.7372C63.9365 39.7472 63.9601 39.7596 63.9865 39.7734C64.08 39.8225 64.2089 39.8901 64.3432 39.9387C64.5534 40.0405 64.7774 40.1149 64.9739 40.1654C65.5925 40.3856 66.2098 40.508 66.8676 40.5577C67.0809 40.5833 67.2899 40.5833 67.4859 40.5833H67.5C68.0452 40.5833 68.5651 40.5336 69.1061 40.4352Z" fill="#8A8AFF" stroke="#303067"/>
<path d="M30.8939 59.5647L30.8939 59.5647L30.8898 59.5655C30.3703 59.6644 29.8652 59.8144 29.3794 60.0433C26.4275 61.2883 24.4167 64.194 24.4167 67.5C24.4167 71.9528 28.0472 75.5833 32.5 75.5833C35.7854 75.5833 38.7177 73.5688 39.9608 70.6107C40.1573 70.144 40.333 69.6197 40.4345 69.0868C40.5337 68.5658 40.5833 68.0445 40.5833 67.5V67.4858C40.5833 67.2894 40.5834 67.0799 40.5575 66.866C40.5074 66.2501 40.3846 65.662 40.2152 65.1028C40.1634 64.8984 40.0855 64.6629 39.9774 64.4436C39.9092 64.2844 39.8353 64.1125 39.7372 63.9164L39.7328 63.9075C39.6675 63.7769 39.5889 63.6197 39.4838 63.4594C38.7886 62.225 37.7749 61.2113 36.5406 60.5162C36.3803 60.4111 36.2231 60.3325 36.0925 60.2672L36.0836 60.2627L35.86 60.71L36.0836 60.2627C35.8874 60.1647 35.7156 60.0907 35.5564 60.0225C35.3371 59.9145 35.1016 59.8366 34.8971 59.7847C34.3379 59.6153 33.7499 59.4926 33.1339 59.4424C32.9201 59.4166 32.7106 59.4166 32.5141 59.4166L32.5 59.4166C31.9548 59.4166 31.4348 59.4663 30.8939 59.5647Z" fill="#8A8AFF" stroke="#303067"/>
<path d="M59.5647 69.1061L59.5647 69.1061L59.5655 69.1102C59.6644 69.6296 59.8145 70.1348 60.0433 70.6205C61.2883 73.5724 64.194 75.5833 67.5 75.5833C71.9528 75.5833 75.5833 71.9528 75.5833 67.5C75.5833 64.2145 73.5688 61.2822 70.6107 60.0391C70.144 59.8426 69.6198 59.667 69.0869 59.5655C68.5659 59.4662 68.0445 59.4166 67.5 59.4166L67.4859 59.4166C67.296 59.4166 67.094 59.4166 66.8877 59.4399C66.8282 59.4399 66.7267 59.4423 66.6148 59.4698C66.3858 59.4931 66.172 59.5325 65.9695 59.5699C65.9362 59.576 65.9032 59.5821 65.8705 59.588L65.8689 59.5883C65.1903 59.714 64.5379 59.9399 63.9129 60.2645L63.9075 60.2672C63.7769 60.3325 63.6197 60.4111 63.4594 60.5162C62.2251 61.2113 61.2113 62.225 60.5162 63.4594C60.4111 63.6197 60.3325 63.7769 60.2672 63.9075L60.2645 63.9129C59.94 64.5379 59.714 65.1903 59.5883 65.8689L59.5881 65.8705C59.5821 65.9032 59.576 65.9362 59.5699 65.9695C59.5325 66.172 59.4931 66.3857 59.4699 66.6147C59.4423 66.7267 59.44 66.8282 59.4399 66.8876C59.4166 67.094 59.4166 67.296 59.4167 67.4858L59.4167 67.5C59.4167 68.0452 59.4664 68.5651 59.5647 69.1061Z" fill="#8A8AFF" stroke="#303067"/>
</g>
<path opacity="0.4" d="M60.4361 66.9787L60.5064 66.4167H59.94H40.06H39.4936L39.5639 66.9787C39.5827 67.1291 39.5833 67.284 39.5833 67.5C39.5833 67.9822 39.5396 68.4408 39.4522 68.8998C39.367 69.3469 39.216 69.8027 39.0392 70.2227L38.747 70.9167H39.5H60.5H61.2901L60.9519 70.2027C60.7637 69.8055 60.6353 69.3814 60.5483 68.9253C60.4602 68.4403 60.4167 67.9809 60.4167 67.5C60.4167 67.284 60.4174 67.1291 60.4361 66.9787ZM29.7774 39.0392L29.0833 38.747V39.5V60.5V61.2901L29.7974 60.9519C30.1946 60.7638 30.6186 60.6353 31.0747 60.5483C31.5597 60.4602 32.0192 60.4167 32.5 60.4167C32.716 60.4167 32.8709 60.4174 33.0213 60.4362L33.5833 60.5064V59.94V40.06V39.4936L33.0213 39.5639C32.8709 39.5827 32.716 39.5834 32.5 39.5834C32.0179 39.5834 31.5592 39.5396 31.1002 39.4522C30.6531 39.367 30.1974 39.2161 29.7774 39.0392ZM66.9787 39.5639L66.4167 39.4936V40.06V59.94V60.5064L66.9787 60.4362C67.1291 60.4174 67.284 60.4167 67.5 60.4167C67.9821 60.4167 68.4408 60.4604 68.8998 60.5479C69.3469 60.633 69.8027 60.784 70.2226 60.9609L70.9167 61.2531V60.5V39.5V38.7099L70.2026 39.0482C69.8054 39.2363 69.3813 39.3648 68.9252 39.4518C68.4402 39.5399 67.9808 39.5834 67.5 39.5834C67.284 39.5834 67.1291 39.5827 66.9787 39.5639ZM60.9608 29.7774L61.253 29.0834H60.5H39.5H38.7099L39.0481 29.7974C39.2363 30.1946 39.3648 30.6187 39.4518 31.0749C39.5398 31.5598 39.5833 32.0192 39.5833 32.5C39.5833 32.7161 39.5827 32.871 39.5639 33.0214L39.4936 33.5834H40.06H59.94H60.5064L60.4361 33.0214C60.4174 32.871 60.4167 32.7161 60.4167 32.5C60.4167 32.0179 60.4604 31.5592 60.5478 31.1003C60.633 30.6531 60.784 30.1974 60.9608 29.7774Z" fill="#8A8AFF" stroke="#303067"/>
<path d="M40.4353 30.8939L40.4353 30.8938L40.4345 30.8897C40.3356 30.3703 40.1855 29.8651 39.9567 29.3794C38.7116 26.4275 35.806 24.4166 32.5 24.4166C28.0472 24.4166 24.4167 28.0472 24.4167 32.5C24.4167 35.7854 26.4312 38.7177 29.3893 39.9608C29.856 40.1573 30.3802 40.333 30.9131 40.4345C31.4341 40.5337 31.9554 40.5833 32.5 40.5833H32.5141C32.7103 40.5833 32.9195 40.5833 33.1331 40.5576C33.7691 40.5078 34.3585 40.3855 34.9448 40.192C35.1945 40.1334 35.4512 40.0289 35.6582 39.9372C35.7922 39.8829 35.9437 39.8071 36.0724 39.7428L36.0836 39.7372L36.0925 39.7327C36.2231 39.6675 36.3803 39.5889 36.5406 39.4837C37.7749 38.7886 38.7887 37.7749 39.4838 36.5406C39.5889 36.3802 39.6675 36.223 39.7328 36.0924L39.7372 36.0836L39.7428 36.0724C39.8071 35.9437 39.8829 35.7922 39.9372 35.6582C40.029 35.4512 40.1334 35.1945 40.1921 34.9448C40.3856 34.3585 40.5078 33.7691 40.5576 33.1331C40.5834 32.9195 40.5833 32.7103 40.5833 32.5141V32.5C40.5833 31.9548 40.5336 31.4348 40.4353 30.8939Z" fill="#8A8AFF" stroke="#303067"/>
<path d="M69.1061 40.4352L69.1061 40.4352L69.1102 40.4345C69.6297 40.3355 70.1348 40.1855 70.6205 39.9566C73.5724 38.7116 75.5833 35.8059 75.5833 32.5C75.5833 28.0472 71.9528 24.4166 67.5 24.4166C64.2144 24.4166 61.282 26.4313 60.039 29.3896C59.8426 29.8562 59.667 30.3803 59.5655 30.9131C59.4662 31.4341 59.4167 31.9554 59.4167 32.5L59.4167 32.5141C59.4166 32.7101 59.4166 32.919 59.4423 33.1324C59.4919 33.7902 59.6143 34.4075 59.8345 35.026C59.8851 35.2225 59.9595 35.4465 60.0613 35.6567C60.1099 35.7911 60.1775 35.9199 60.2265 36.0135C60.2404 36.0399 60.2527 36.0635 60.2628 36.0836L60.7069 35.8615L60.2628 36.0836L60.2672 36.0924C60.3325 36.223 60.4111 36.3802 60.5162 36.5406C61.2113 37.7749 62.2251 38.7886 63.4594 39.4837C63.6197 39.5889 63.7769 39.6674 63.9075 39.7327L63.9164 39.7372C63.9365 39.7472 63.9601 39.7596 63.9865 39.7734C64.08 39.8225 64.2089 39.8901 64.3432 39.9387C64.5534 40.0405 64.7774 40.1149 64.9739 40.1654C65.5925 40.3856 66.2098 40.508 66.8676 40.5577C67.0809 40.5833 67.2899 40.5833 67.4859 40.5833H67.5C68.0452 40.5833 68.5651 40.5336 69.1061 40.4352Z" fill="#8A8AFF" stroke="#303067"/>
<path d="M30.8939 59.5647L30.8939 59.5647L30.8898 59.5655C30.3703 59.6644 29.8652 59.8144 29.3794 60.0433C26.4275 61.2883 24.4167 64.194 24.4167 67.5C24.4167 71.9528 28.0472 75.5833 32.5 75.5833C35.7854 75.5833 38.7177 73.5688 39.9608 70.6107C40.1573 70.144 40.333 69.6197 40.4345 69.0868C40.5337 68.5658 40.5833 68.0445 40.5833 67.5V67.4858C40.5833 67.2894 40.5834 67.0799 40.5575 66.866C40.5074 66.2501 40.3846 65.662 40.2152 65.1028C40.1634 64.8984 40.0855 64.6629 39.9774 64.4436C39.9092 64.2844 39.8353 64.1125 39.7372 63.9164L39.7328 63.9075C39.6675 63.7769 39.5889 63.6197 39.4838 63.4594C38.7886 62.225 37.7749 61.2113 36.5406 60.5162C36.3803 60.4111 36.2231 60.3325 36.0925 60.2672L36.0836 60.2627L35.86 60.71L36.0836 60.2627C35.8874 60.1647 35.7156 60.0907 35.5564 60.0225C35.3371 59.9145 35.1016 59.8366 34.8971 59.7847C34.3379 59.6153 33.7499 59.4926 33.1339 59.4424C32.9201 59.4166 32.7106 59.4166 32.5141 59.4166L32.5 59.4166C31.9548 59.4166 31.4348 59.4663 30.8939 59.5647Z" fill="#8A8AFF" stroke="#303067"/>
<path d="M59.5647 69.1061L59.5647 69.1061L59.5655 69.1102C59.6644 69.6296 59.8145 70.1348 60.0433 70.6205C61.2883 73.5724 64.194 75.5833 67.5 75.5833C71.9528 75.5833 75.5833 71.9528 75.5833 67.5C75.5833 64.2145 73.5688 61.2822 70.6107 60.0391C70.144 59.8426 69.6198 59.667 69.0869 59.5655C68.5659 59.4662 68.0445 59.4166 67.5 59.4166L67.4859 59.4166C67.296 59.4166 67.094 59.4166 66.8877 59.4399C66.8282 59.4399 66.7267 59.4423 66.6148 59.4698C66.3858 59.4931 66.172 59.5325 65.9695 59.5699C65.9362 59.576 65.9032 59.5821 65.8705 59.588L65.8689 59.5883C65.1903 59.714 64.5379 59.9399 63.9129 60.2645L63.9075 60.2672C63.7769 60.3325 63.6197 60.4111 63.4594 60.5162C62.2251 61.2113 61.2113 62.225 60.5162 63.4594C60.4111 63.6197 60.3325 63.7769 60.2672 63.9075L60.2645 63.9129C59.94 64.5379 59.714 65.1903 59.5883 65.8689L59.5881 65.8705C59.5821 65.9032 59.576 65.9362 59.5699 65.9695C59.5325 66.172 59.4931 66.3857 59.4699 66.6147C59.4423 66.7267 59.44 66.8282 59.4399 66.8876C59.4166 67.094 59.4166 67.296 59.4167 67.4858L59.4167 67.5C59.4167 68.0452 59.4664 68.5651 59.5647 69.1061Z" fill="#8A8AFF" stroke="#303067"/>
<defs>
<filter id="filter0_f_142_1410" x="10" y="10" width="80" height="80" filterUnits="userSpaceOnUse" color-interpolation-filters="sRGB">
<feFlood flood-opacity="0" result="BackgroundImageFix"/>
<feBlend mode="normal" in="SourceGraphic" in2="BackgroundImageFix" result="shape"/>
<feGaussianBlur stdDeviation="6" result="effect1_foregroundBlur_142_1410"/>
</filter>
<linearGradient id="paint0_linear_142_1410" x1="50.1036" y1="0" x2="50.1036" y2="99.7933" gradientUnits="userSpaceOnUse">
<stop stop-color="#0E0E1F"/>
<stop offset="1" stop-color="#171733"/>
</linearGradient>
<linearGradient id="paint1_linear_142_1410" x1="0.206909" y1="0" x2="100" y2="99.7933" gradientUnits="userSpaceOnUse">
<stop stop-color="white" stop-opacity="0.5"/>
<stop offset="1" stop-color="white" stop-opacity="0"/>
</linearGradient>
<linearGradient id="paint2_linear_142_1410" x1="43.5382" y1="46.2857" x2="92.0425" y2="99.7933" gradientUnits="userSpaceOnUse">
<stop stop-color="white" stop-opacity="0"/>
<stop offset="1" stop-color="white" stop-opacity="0.5"/>
</linearGradient>
</defs>
</svg>
