<svg width="100" height="100" viewBox="0 0 100 100" fill="none" xmlns="http://www.w3.org/2000/svg">
<rect x="0.206902" width="99.7933" height="99.7933" rx="16" transform="rotate(0.118781 0.206902 0)" fill="url(#paint0_linear_142_1333)"/>
<rect x="0.478152" y="0.272378" width="99.2497" height="99.2497" rx="15.7282" transform="rotate(0.118781 0.478152 0.272378)" stroke="url(#paint1_linear_142_1333)" stroke-opacity="0.4" stroke-width="0.54363"/>
<rect x="0.478152" y="0.272378" width="99.2497" height="99.2497" rx="15.7282" transform="rotate(0.118781 0.478152 0.272378)" stroke="url(#paint2_linear_142_1333)" stroke-opacity="0.2" stroke-width="0.54363"/>
<g filter="url(#filter0_f_142_1333)">
<path d="M50 56.0533C53.3432 56.0533 56.0533 53.3432 56.0533 50C56.0533 46.6568 53.3432 43.9467 50 43.9467C46.6568 43.9467 43.9467 46.6568 43.9467 50C43.9467 53.3432 46.6568 56.0533 50 56.0533Z" fill="#8A8AFF" stroke="#303067"/>
<path opacity="0.4" d="M67.3147 65.7986L67.3146 65.7988L67.326 65.8069C67.7308 66.096 68.1812 66.25 68.6667 66.25C69.3529 66.25 70.0172 65.9488 70.4659 65.3511C73.822 60.9001 75.5833 55.5909 75.5833 50C75.5833 44.4092 73.822 39.1 70.4659 34.649L70.4652 34.6481C69.719 33.663 68.3098 33.4476 67.3147 34.2015C66.3299 34.9476 66.1144 36.3561 66.8675 37.3512C69.6252 41.0208 71.0833 45.395 71.0833 50C71.0833 54.6051 69.6252 58.9793 66.8675 62.6489C66.1144 63.644 66.3299 65.0525 67.3147 65.7986Z" fill="#8A8AFF" stroke="#303067"/>
<path opacity="0.4" d="M29.5348 34.6481L29.5341 34.649C26.178 39.1 24.4167 44.4092 24.4167 50C24.4167 55.5906 26.1779 60.8997 29.5337 65.3506C29.9825 65.9486 30.6469 66.25 31.3333 66.25C31.8085 66.25 32.2903 66.1019 32.6869 65.7974C33.6703 65.051 33.8852 63.6435 33.1325 62.6489C30.3748 58.9793 28.9167 54.6051 28.9167 50C28.9167 45.395 30.3748 41.0208 33.1325 37.3512C33.8856 36.3561 33.6701 34.9476 32.6853 34.2015C31.6902 33.4476 30.2811 33.663 29.5348 34.6481Z" fill="#8A8AFF" stroke="#303067"/>
<path opacity="0.4" d="M59.8481 60.1986L59.848 60.1987L59.8594 60.2069C60.2641 60.496 60.7145 60.65 61.2 60.65C61.8865 60.65 62.5508 60.3485 62.9996 59.7505C65.1184 56.9335 66.25 53.538 66.25 50C66.25 46.461 65.1177 43.0897 63.0008 40.2511L63.0008 40.2511L62.9985 40.2481C62.2523 39.2631 60.8432 39.0475 59.8481 39.8014C58.863 40.5477 58.6476 41.9569 59.4015 42.952L59.4016 42.9521C60.9443 44.9867 61.75 47.4234 61.75 50C61.75 52.5766 60.9443 55.0134 59.4016 57.0479L59.4015 57.0481C58.6476 58.0432 58.863 59.4523 59.8481 60.1986Z" fill="#8A8AFF" stroke="#303067"/>
<path opacity="0.4" d="M36.9992 59.7489L37 59.75C37.4488 60.3483 38.1133 60.65 38.8 60.65C39.2752 60.65 39.7569 60.5019 40.1535 60.1974C41.1372 59.4508 41.352 58.0426 40.5985 57.0481L40.5984 57.0479C39.0557 55.0134 38.25 52.5766 38.25 50C38.25 47.4234 39.0557 44.9867 40.5984 42.9521L40.5985 42.952C41.3524 41.9569 41.137 40.5477 40.1519 39.8014C39.1568 39.0475 37.7477 39.2631 37.0015 40.2481L37.0004 40.2495C34.8816 43.0665 33.75 46.4621 33.75 50C33.75 53.5391 34.8823 56.9103 36.9992 59.7489Z" fill="#8A8AFF" stroke="#303067"/>
</g>
<path d="M50 56.0533C53.3432 56.0533 56.0533 53.3432 56.0533 50C56.0533 46.6568 53.3432 43.9467 50 43.9467C46.6568 43.9467 43.9467 46.6568 43.9467 50C43.9467 53.3432 46.6568 56.0533 50 56.0533Z" fill="#8A8AFF" stroke="#303067"/>
<path opacity="0.4" d="M67.3147 65.7986L67.3146 65.7988L67.326 65.8069C67.7308 66.096 68.1812 66.25 68.6667 66.25C69.3529 66.25 70.0172 65.9488 70.4659 65.3511C73.822 60.9001 75.5833 55.5909 75.5833 50C75.5833 44.4092 73.822 39.1 70.4659 34.649L70.4652 34.6481C69.719 33.663 68.3098 33.4476 67.3147 34.2015C66.3299 34.9476 66.1144 36.3561 66.8675 37.3512C69.6252 41.0208 71.0833 45.395 71.0833 50C71.0833 54.6051 69.6252 58.9793 66.8675 62.6489C66.1144 63.644 66.3299 65.0525 67.3147 65.7986Z" fill="#8A8AFF" stroke="#303067"/>
<path opacity="0.4" d="M29.5348 34.6481L29.5341 34.649C26.178 39.1 24.4167 44.4092 24.4167 50C24.4167 55.5906 26.1779 60.8997 29.5337 65.3506C29.9825 65.9486 30.6469 66.25 31.3333 66.25C31.8085 66.25 32.2903 66.1019 32.6869 65.7974C33.6703 65.051 33.8852 63.6435 33.1325 62.6489C30.3748 58.9793 28.9167 54.6051 28.9167 50C28.9167 45.395 30.3748 41.0208 33.1325 37.3512C33.8856 36.3561 33.6701 34.9476 32.6853 34.2015C31.6902 33.4476 30.2811 33.663 29.5348 34.6481Z" fill="#8A8AFF" stroke="#303067"/>
<path opacity="0.4" d="M59.8481 60.1986L59.848 60.1987L59.8594 60.2069C60.2641 60.496 60.7145 60.65 61.2 60.65C61.8865 60.65 62.5508 60.3485 62.9996 59.7505C65.1184 56.9335 66.25 53.538 66.25 50C66.25 46.461 65.1177 43.0897 63.0008 40.2511L63.0008 40.2511L62.9985 40.2481C62.2523 39.2631 60.8432 39.0475 59.8481 39.8014C58.863 40.5477 58.6476 41.9569 59.4015 42.952L59.4016 42.9521C60.9443 44.9867 61.75 47.4234 61.75 50C61.75 52.5766 60.9443 55.0134 59.4016 57.0479L59.4015 57.0481C58.6476 58.0432 58.863 59.4523 59.8481 60.1986Z" fill="#8A8AFF" stroke="#303067"/>
<path opacity="0.4" d="M36.9992 59.7489L37 59.75C37.4488 60.3483 38.1133 60.65 38.8 60.65C39.2752 60.65 39.7569 60.5019 40.1535 60.1974C41.1372 59.4508 41.352 58.0426 40.5985 57.0481L40.5984 57.0479C39.0557 55.0134 38.25 52.5766 38.25 50C38.25 47.4234 39.0557 44.9867 40.5984 42.9521L40.5985 42.952C41.3524 41.9569 41.137 40.5477 40.1519 39.8014C39.1568 39.0475 37.7477 39.2631 37.0015 40.2481L37.0004 40.2495C34.8816 43.0665 33.75 46.4621 33.75 50C33.75 53.5391 34.8823 56.9103 36.9992 59.7489Z" fill="#8A8AFF" stroke="#303067"/>
<defs>
<filter id="filter0_f_142_1333" x="10" y="10" width="80" height="80" filterUnits="userSpaceOnUse" color-interpolation-filters="sRGB">
<feFlood flood-opacity="0" result="BackgroundImageFix"/>
<feBlend mode="normal" in="SourceGraphic" in2="BackgroundImageFix" result="shape"/>
<feGaussianBlur stdDeviation="6" result="effect1_foregroundBlur_142_1333"/>
</filter>
<linearGradient id="paint0_linear_142_1333" x1="50.1036" y1="0" x2="50.1036" y2="99.7933" gradientUnits="userSpaceOnUse">
<stop stop-color="#0E0E1F"/>
<stop offset="1" stop-color="#171733"/>
</linearGradient>
<linearGradient id="paint1_linear_142_1333" x1="0.206902" y1="0" x2="100" y2="99.7933" gradientUnits="userSpaceOnUse">
<stop stop-color="white" stop-opacity="0.5"/>
<stop offset="1" stop-color="white" stop-opacity="0"/>
</linearGradient>
<linearGradient id="paint2_linear_142_1333" x1="43.5382" y1="46.2857" x2="92.0425" y2="99.7933" gradientUnits="userSpaceOnUse">
<stop stop-color="white" stop-opacity="0"/>
<stop offset="1" stop-color="white" stop-opacity="0.5"/>
</linearGradient>
</defs>
</svg>
