<svg width="100" height="100" viewBox="0 0 100 100" fill="none" xmlns="http://www.w3.org/2000/svg">
<rect x="0.206909" width="99.7933" height="99.7933" rx="16" transform="rotate(0.118781 0.206909 0)" fill="url(#paint0_linear_142_1254)"/>
<rect x="0.47816" y="0.272378" width="99.2497" height="99.2497" rx="15.7282" transform="rotate(0.118781 0.47816 0.272378)" stroke="url(#paint1_linear_142_1254)" stroke-opacity="0.4" stroke-width="0.54363"/>
<rect x="0.47816" y="0.272378" width="99.2497" height="99.2497" rx="15.7282" transform="rotate(0.118781 0.47816 0.272378)" stroke="url(#paint2_linear_142_1254)" stroke-opacity="0.2" stroke-width="0.54363"/>
<g filter="url(#filter0_f_142_1254)">
<path opacity="0.4" d="M64.0178 52.3564L64.0194 52.354C65.7994 49.6839 66.8333 46.4844 66.8333 43C66.8333 33.6938 59.3061 26.1666 50 26.1666C40.6938 26.1666 33.1667 33.6938 33.1667 43C33.1667 46.4844 34.2005 49.6839 35.9806 52.354L35.9822 52.3564C38.5763 56.1995 42.6853 58.9174 47.4704 59.617C48.2913 59.7614 49.1347 59.8333 50 59.8333C50.8653 59.8333 51.7086 59.7614 52.5296 59.617C57.3147 58.9174 61.4237 56.1995 64.0178 52.3564Z" fill="#8A8AFF" stroke="#303067"/>
<path d="M71.6983 65.5833L71.6986 65.5832C73.8446 65.0749 74.624 62.3875 73.0553 60.8449C73.0548 60.8443 73.0542 60.8437 73.0536 60.8432L63.9569 51.7464L63.5281 51.3177L63.1889 51.8202C60.7443 55.4418 56.8762 57.9964 52.3779 58.6519L52.3705 58.653L52.3631 58.6543C51.677 58.7754 50.9715 58.8423 50.2462 58.8546L49.9996 58.5714L49.7536 58.8546C49.0283 58.8423 48.3229 58.7754 47.6369 58.6543L47.6295 58.653L47.6221 58.6519C43.1238 57.9964 39.2556 55.4418 36.8111 51.8202L36.4719 51.3177L36.0431 51.7464L26.9431 60.8464C25.3817 62.4078 26.149 65.0968 28.3014 65.6066L28.3016 65.6066L32.1516 66.5166L32.1516 66.5166L32.1582 66.5181C32.8043 66.6616 33.3401 67.1884 33.5072 67.8737C33.5073 67.874 33.5074 67.8744 33.5075 67.8748L34.3235 71.3022C34.3235 71.3022 34.3235 71.3022 34.3235 71.3023C34.3236 71.3023 34.3236 71.3024 34.3236 71.3024C34.8623 73.5698 37.7498 74.2466 39.2499 72.4684L50.0003 60.0953L60.7502 72.4452C62.2503 74.2233 65.1377 73.5465 65.6764 71.2792C65.6764 71.2791 65.6764 71.279 65.6765 71.2789L66.4931 67.8491L66.4932 67.8492L66.4954 67.839C66.6385 67.1768 67.1598 66.6613 67.85 66.4928C67.8505 66.4927 67.851 66.4926 67.8515 66.4925L71.6983 65.5833Z" fill="#8A8AFF" stroke="#303067"/>
<path d="M56.2637 40.4364L56.2637 40.4364L56.2668 40.4369C56.9704 40.5507 57.2354 40.836 57.3024 41.046C57.3698 41.2576 57.3182 41.6481 56.8098 42.1565L54.8731 44.0931L55.2267 44.4467L54.8731 44.0931C54.6361 44.3302 54.4715 44.651 54.3811 44.9692C54.291 45.2863 54.2606 45.65 54.3439 45.987L54.903 48.3868L54.9032 48.3876C55.115 49.2904 54.9172 49.6642 54.7704 49.7719C54.6246 49.8789 54.2093 49.9569 53.4064 49.4774L53.4041 49.476L51.0737 48.1011C50.7667 47.9147 50.3919 47.8375 50.0467 47.8375C49.7014 47.8375 49.3266 47.9147 49.0196 48.1011L46.6914 49.4748C46.691 49.475 46.6907 49.4752 46.6903 49.4754C45.8868 49.9438 45.469 49.8693 45.321 49.7618C45.1766 49.6569 44.9782 49.291 45.1901 48.3876L45.1903 48.3868L45.7503 45.9835L45.7504 45.9835L45.7526 45.973C45.8193 45.6562 45.7904 45.3001 45.7052 44.9844C45.6206 44.6704 45.4642 44.3371 45.2202 44.0931L44.8667 44.4467L45.2202 44.0931L43.2835 42.1565C43.2835 42.1565 43.2835 42.1565 43.2835 42.1565C42.7733 41.6462 42.7244 41.2622 42.7907 41.0557C42.8576 40.8471 43.1239 40.5614 43.8316 40.4361L46.3255 40.0166C46.3257 40.0165 46.3258 40.0165 46.3259 40.0165C46.6366 39.9646 46.9373 39.8102 47.1792 39.6288C47.4214 39.4471 47.6502 39.2042 47.7872 38.9303L49.1639 36.177L49.1681 36.1684L49.1721 36.1597C49.476 35.489 49.816 35.3334 50.0087 35.3334C50.2099 35.3334 50.5674 35.4996 50.9061 36.177L52.2828 38.9303C52.42 39.2047 52.6495 39.4482 52.8965 39.6309C53.1435 39.8134 53.4495 39.9657 53.7693 40.0168L56.2637 40.4364Z" fill="#8A8AFF" stroke="#303067"/>
</g>
<path opacity="0.4" d="M64.0178 52.3564L64.0194 52.354C65.7994 49.6839 66.8333 46.4844 66.8333 43C66.8333 33.6938 59.3061 26.1666 50 26.1666C40.6938 26.1666 33.1667 33.6938 33.1667 43C33.1667 46.4844 34.2005 49.6839 35.9806 52.354L35.9822 52.3564C38.5763 56.1995 42.6853 58.9174 47.4704 59.617C48.2913 59.7614 49.1347 59.8333 50 59.8333C50.8653 59.8333 51.7086 59.7614 52.5296 59.617C57.3147 58.9174 61.4237 56.1995 64.0178 52.3564Z" fill="#8A8AFF" stroke="#303067"/>
<path d="M71.6983 65.5833L71.6986 65.5832C73.8446 65.0749 74.624 62.3875 73.0553 60.8449C73.0548 60.8443 73.0542 60.8437 73.0536 60.8432L63.9569 51.7464L63.5281 51.3177L63.1889 51.8202C60.7443 55.4418 56.8762 57.9964 52.3779 58.6519L52.3705 58.653L52.3631 58.6543C51.677 58.7754 50.9715 58.8423 50.2462 58.8546L49.9996 58.5714L49.7536 58.8546C49.0283 58.8423 48.3229 58.7754 47.6369 58.6543L47.6295 58.653L47.6221 58.6519C43.1238 57.9964 39.2556 55.4418 36.8111 51.8202L36.4719 51.3177L36.0431 51.7464L26.9431 60.8464C25.3817 62.4078 26.149 65.0968 28.3014 65.6066L28.3016 65.6066L32.1516 66.5166L32.1516 66.5166L32.1582 66.5181C32.8043 66.6616 33.3401 67.1884 33.5072 67.8737C33.5073 67.874 33.5074 67.8744 33.5075 67.8748L34.3235 71.3022C34.3235 71.3022 34.3235 71.3022 34.3235 71.3023C34.3236 71.3023 34.3236 71.3024 34.3236 71.3024C34.8623 73.5698 37.7498 74.2466 39.2499 72.4684L50.0003 60.0953L60.7502 72.4452C62.2503 74.2233 65.1377 73.5465 65.6764 71.2792C65.6764 71.2791 65.6764 71.279 65.6765 71.2789L66.4931 67.8491L66.4932 67.8492L66.4954 67.839C66.6385 67.1768 67.1598 66.6613 67.85 66.4928C67.8505 66.4927 67.851 66.4926 67.8515 66.4925L71.6983 65.5833Z" fill="#8A8AFF" stroke="#303067"/>
<path d="M56.2637 40.4364L56.2637 40.4364L56.2668 40.4369C56.9704 40.5507 57.2354 40.836 57.3024 41.046C57.3698 41.2576 57.3182 41.6481 56.8098 42.1565L54.8731 44.0931L55.2267 44.4467L54.8731 44.0931C54.6361 44.3302 54.4715 44.651 54.3811 44.9692C54.291 45.2863 54.2606 45.65 54.3439 45.987L54.903 48.3868L54.9032 48.3876C55.115 49.2904 54.9172 49.6642 54.7704 49.7719C54.6246 49.8789 54.2093 49.9569 53.4064 49.4774L53.4041 49.476L51.0737 48.1011C50.7667 47.9147 50.3919 47.8375 50.0467 47.8375C49.7014 47.8375 49.3266 47.9147 49.0196 48.1011L46.6914 49.4748C46.691 49.475 46.6907 49.4752 46.6903 49.4754C45.8868 49.9438 45.469 49.8693 45.321 49.7618C45.1766 49.6569 44.9782 49.291 45.1901 48.3876L45.1903 48.3868L45.7503 45.9835L45.7504 45.9835L45.7526 45.973C45.8193 45.6562 45.7904 45.3001 45.7052 44.9844C45.6206 44.6704 45.4642 44.3371 45.2202 44.0931L44.8667 44.4467L45.2202 44.0931L43.2835 42.1565C43.2835 42.1565 43.2835 42.1565 43.2835 42.1565C42.7733 41.6462 42.7244 41.2622 42.7907 41.0557C42.8576 40.8471 43.1239 40.5614 43.8316 40.4361L46.3255 40.0166C46.3257 40.0165 46.3258 40.0165 46.3259 40.0165C46.6366 39.9646 46.9373 39.8102 47.1792 39.6288C47.4214 39.4471 47.6502 39.2042 47.7872 38.9303L49.1639 36.177L49.1681 36.1684L49.1721 36.1597C49.476 35.489 49.816 35.3334 50.0087 35.3334C50.2099 35.3334 50.5674 35.4996 50.9061 36.177L52.2828 38.9303C52.42 39.2047 52.6495 39.4482 52.8965 39.6309C53.1435 39.8134 53.4495 39.9657 53.7693 40.0168L56.2637 40.4364Z" fill="#8A8AFF" stroke="#303067"/>
<defs>
<filter id="filter0_f_142_1254" x="13.6176" y="13.6666" width="72.7657" height="72.3135" filterUnits="userSpaceOnUse" color-interpolation-filters="sRGB">
<feFlood flood-opacity="0" result="BackgroundImageFix"/>
<feBlend mode="normal" in="SourceGraphic" in2="BackgroundImageFix" result="shape"/>
<feGaussianBlur stdDeviation="6" result="effect1_foregroundBlur_142_1254"/>
</filter>
<linearGradient id="paint0_linear_142_1254" x1="50.1036" y1="0" x2="50.1036" y2="99.7933" gradientUnits="userSpaceOnUse">
<stop stop-color="#0E0E1F"/>
<stop offset="1" stop-color="#171733"/>
</linearGradient>
<linearGradient id="paint1_linear_142_1254" x1="0.206909" y1="0" x2="100" y2="99.7933" gradientUnits="userSpaceOnUse">
<stop stop-color="white" stop-opacity="0.5"/>
<stop offset="1" stop-color="white" stop-opacity="0"/>
</linearGradient>
<linearGradient id="paint2_linear_142_1254" x1="43.5382" y1="46.2857" x2="92.0425" y2="99.7933" gradientUnits="userSpaceOnUse">
<stop stop-color="white" stop-opacity="0"/>
<stop offset="1" stop-color="white" stop-opacity="0.5"/>
</linearGradient>
</defs>
</svg>
